# xmcd CD database file
#
# Track frame offsets:
#	150
#	24887
#	41050
#	57312
#	73455
#	92915
#	116365
#	134147
#	158500
#	182660
#	203672
#	220522
#	238642
#	263475
#	281060
#	299390
#	318797
#
# Disc length: 4502 seconds
#
# Revision: 7
# Processed by: cddbd v1.5.2PL0 Copyright (c) Steve Scherf et al.
# Submitted via: CDex 1.51
#
DISCID=f7119411
DTITLE=Maxi Priest - Greatest Hits and Rarities
DYEAR=1900
DGENRE=Reggae
TTITLE0=Close To You
TTITLE1=Wild World
TTITLE2=Just A Little Bit Longer
TTITLE3=Some Guys Have All The Luck
TTITLE4=Message In A Bottle
TTITLE5=Groovin' In The Midnight
TTITLE6=That Girl (featuring Shaggy)
TTITLE7=One More Chance
TTITLE8=Love Somebody For Life (featuring Yuji Oda)
TTITLE9=Back Together Again (Duet with Elisha La'Verne)
TTITLE10=Man With The Fun
TTITLE11=Mary's Got A Body (featuring Beenie Man)
TTITLE12=Diggin' On You (featuring Yuji Oda)
TTITLE13=Everything I Own
TTITLE14=The Tide Is High
TTITLE15=Waiting For A Girl Like You
TTITLE16=Never Had A Love So Good
EXTD=
EXTT0=
EXTT1=
EXTT2=
EXTT3=
EXTT4=
EXTT5=
EXTT6=
EXTT7=
EXTT8=
EXTT9=
EXTT10=
EXTT11=
EXTT12=
EXTT13=
EXTT14=
EXTT15=
EXTT16=
PLAYORDER=
